<svg xmlns="http://www.w3.org/2000/svg" width="48" height="32" viewBox="0 0 48 32" fill="none">
  <rect width="48" height="32" rx="4" fill="#F7F7F7"/>
  <path d="M29 10H19V22H29V10Z" fill="#DEDDDC"/>
  <path d="M20 16C20 13.2 21.8 10.8 24.2 10C22.9 9.4 21.5 9 20 9C15.6 9 12 12.1 12 16C12 19.9 15.6 23 20 23C21.5 23 22.9 22.6 24.2 22C21.8 21.2 20 18.8 20 16Z" fill="#E8232A"/>
  <path d="M36 16C36 19.9 32.4 23 28 23C26.5 23 25.1 22.6 23.8 22C26.2 21.2 28 18.8 28 16C28 13.2 26.2 10.8 23.8 10C25.1 9.4 26.5 9 28 9C32.4 9 36 12.1 36 16Z" fill="#F49D1E"/>
</svg>
