<svg xmlns="http://www.w3.org/2000/svg" width="48" height="32" viewBox="0 0 48 32" fill="none">
  <rect width="48" height="32" rx="4" fill="#F7F7F7"/>
  <path d="M33.6 13.5C33.6 15.7 32.1 17.5 30 17.5H27.7C27.4 17.5 27.2 17.7 27.1 18L26.3 22.5C26.3 22.8 26 23 25.7 23H23.5C23.3 23 23.1 22.8 23.1 22.6L23.2 22.4L24.3 16.1L24.4 15.9C24.4 15.7 24.6 15.5 24.9 15.5H25.5C28.2 15.5 30.3 14.2 30.9 11.1C31.1 10.2 31 9.5 30.6 8.9C31.8 9 32.7 9.5 33.2 10.3C33.5 10.7 33.6 11.1 33.6 11.6C33.6 12.2 33.6 12.9 33.6 13.5Z" fill="#27346A"/>
  <path d="M30.6 8.9C30.5 8.8 30.4 8.7 30.3 8.6C30.2 8.5 30 8.4 29.9 8.3C29.3 8 28.5 7.9 27.6 7.9H23.5C23.2 7.9 23 8.1 22.9 8.4L21.1 19.4C21.1 19.6 21.3 19.8 21.5 19.8H24.4L25.1 15.5L25 15.9C25.1 15.6 25.3 15.4 25.6 15.4H26.2C28.9 15.4 31 14.1 31.6 11C31.7 10.1 31.6 9.4 31.2 8.8C31 8.8 30.8 8.9 30.6 8.9Z" fill="#27346A"/>
  <path d="M25.7 11.5C25.7 11.4 25.8 11.3 25.8 11.2C25.9 11 26.1 10.9 26.3 10.9H28.9C29.2 10.9 29.5 10.9 29.7 11C29.8 11 29.9 11 30 11.1C30.1 11.1 30.2 11.1 30.3 11.2C30.4 11.2 30.5 11.3 30.6 11.3C30.7 10.7 30.6 10.3 30.2 9.8C29.8 9.3 29.1 9 28.2 9H24.1C23.8 9 23.6 9.2 23.5 9.5L21.7 20.5C21.7 20.8 21.9 21 22.2 21H24.9L25.7 11.5Z" fill="#2790C3"/>
</svg>
