<svg xmlns="http://www.w3.org/2000/svg" width="48" height="32" viewBox="0 0 48 32" fill="none">
  <rect width="48" height="32" rx="4" fill="#F7F7F7"/>
  <path d="M18.5 21H15.5L17.5 11H20.5L18.5 21Z" fill="#2566AF"/>
  <path d="M29.5 11.2C28.9 11 28 10.8 26.9 10.8C24.1 10.8 22.1 12.3 22.1 14.5C22.1 16.2 23.5 17.1 24.6 17.7C25.7 18.3 26.1 18.7 26.1 19.2C26.1 20 25.1 20.3 24.2 20.3C23 20.3 22.3 20.1 21.3 19.7L20.9 19.5L20.5 22.1C21.2 22.4 22.5 22.7 23.8 22.7C26.8 22.7 28.8 21.2 28.8 18.9C28.8 17.5 28 16.5 26.4 15.6C25.4 15 24.8 14.6 24.8 14C24.8 13.5 25.3 13 26.4 13C27.3 13 28 13.2 28.5 13.4L28.8 13.5L29.5 11.2Z" fill="#2566AF"/>
  <path d="M33.5 17.5C33.8 16.7 34.9 13.8 34.9 13.8C34.9 13.8 35.1 13.3 35.3 13L35.5 13.7C35.5 13.7 36.2 16.8 36.3 17.5C35.9 17.5 34.1 17.5 33.5 17.5ZM37.8 11H35.5C34.8 11 34.3 11.2 34 11.9L30 21H33C33 21 33.5 19.7 33.6 19.4C33.9 19.4 36.6 19.4 37 19.4C37.1 19.8 37.4 21 37.4 21H40L37.8 11Z" fill="#2566AF"/>
  <path d="M14 11L11 18.1L10.7 16.9C10.2 15.5 8.8 14 7.2 13.1L10 21H13L18 11H14Z" fill="#2566AF"/>
  <path d="M9 11H4.1L4 11.2C7.6 12.1 10 14.3 11 16.9L10 12C9.8 11.3 9.5 11.1 9 11Z" fill="#E6A540"/>
</svg>
